<?xml version="1.0" encoding="UTF-8" standalone="no"?>
<svg
   xmlns:dc="http://purl.org/dc/elements/1.1/"
   xmlns:cc="http://creativecommons.org/ns#"
   xmlns:rdf="http://www.w3.org/1999/02/22-rdf-syntax-ns#"
   xmlns:svg="http://www.w3.org/2000/svg"
   xmlns="http://www.w3.org/2000/svg"
   viewBox="0 0 375 375"
   version="1.1"
   id="svg2836"
   height="400"
   width="400">
  <defs
     id="defs2838" />
  <metadata
     id="metadata2841">
    <rdf:RDF>
      <cc:Work
         rdf:about="">
        <dc:format>image/svg+xml</dc:format>
        <dc:type
           rdf:resource="http://purl.org/dc/dcmitype/StillImage" />
        <dc:title></dc:title>
      </cc:Work>
    </rdf:RDF>
  </metadata>
  <g
     transform="translate(-43.114143,-454.35168)"
     id="layer1">
    <g
       id="g3664">
      <circle
         r="187.5"
         cy="641.85168"
         cx="230.61415"
         id="path989"
         style="fill:#003e00;fill-opacity:1;stroke:none;stroke-width:3.90445185;stroke-linecap:round;paint-order:stroke fill markers" />
      <g
         id="g3658"
         transform="translate(-8.5714336,-8.5714535)">
        <g
           id="g2881">
          <g
             id="g3054"
             transform="translate(91.437639,-226.01392)">
            <path
               d="m 156.2767,909.87466 c -8.74408,28.15266 -19.00278,49.02732 -30.68836,79.14553 l 4.4599,0.0353 c -0.11336,-0.008 33.23721,-77.55427 35.99776,-78.11904 -3.23362,0.20418 -4.74991,0.59864 -9.7693,-1.06189 z m -40.98861,-20.63588 c -7.35592,24.27899 -29.935637,74.92672 -43.891077,108.8074 l 4.74307,0.46014 c 7.96735,-19.32272 29.163017,-66.05665 46.793547,-102.71928 -3.11781,-1.9612 -5.04016,-3.6771 -7.64554,-6.54826 z m 73.05741,-44.10346 c 3.6171,1.0531 7.35404,3.32619 11.92846,4.4245 -3.30321,7.94568 -6.16761,14.38281 -17.34405,46.01484 -1.55555,0.51783 -6.57775,-0.26126 -8.60124,-5.06163 4.07987,-8.5079 6.61173,-15.22958 10.58341,-23.78613 -0.96791,-0.33234 -2.68035,-0.84951 -4.56608,-1.41584 z M 151.46283,825.6675 c 12.5422,8.19757 20.03456,12.86239 28.98935,17.16708 -3.23149,7.1203 -5.80329,12.66084 -9.02598,19.82178 -4.97646,-1.52594 -10.6896,-4.95545 -10.6896,-4.95545 z m -10.6188,-7.75173 4.24752,1.73441 -2.79629,5.59257 6.76064,22.47648 c 0.26974,4.06724 -2.39792,4.04484 -5.66336,3.15025 -7.13428,-4.62524 -7.13538,5.82536 -13.13193,15.85742 -3.83043,0.43199 -6.89801,-2.2884 -9.02599,-4.56609 z m 52.20914,-45.16533 c 0.78697,0.0211 1.72813,0.23532 2.83168,0.67252 0.39231,0.15562 0.84192,0.38325 1.27426,0.60173 6.91754,3.49497 13.39961,15.85668 9.23837,26.72401 -4.1012,10.70864 -10.63227,24.94651 -18.15817,43.6433 -0.6367,-0.1389 -1.52203,-0.49554 -1.52203,-0.49554 l -8.8844,21.62697 2.05297,0.60174 c -1.71231,4.84949 -4.87142,10.69902 -5.3448,15.04331 -0.49166,5.20182 -3.4035,11.70619 -5.23862,15.07871 -2.67262,0.56319 -6.58288,-0.37718 -10.72499,-1.55743 6.63611,-14.10387 8.98555,-21.88203 12.91955,-30.90073 l 1.7698,0.60173 9.16757,-21.87475 c 0,0 -0.74745,-0.36238 -1.27425,-0.49554 17.40271,-38.41149 21.93793,-47.68437 18.58291,-55.324 -3.39038,-7.72055 -4.82975,-7.12727 -8.07029,-9.20297 -2.46832,-1.58137 -2.02976,-4.8346 1.38044,-4.74306 z m -7.61015,-18.37054 c -5.19877,0.1424 -10.13905,1.53332 -14.93712,3.85816 -2.38828,1.1577 -4.71961,2.52901 -7.04381,4.10594 -10.61652,7.2233 -14.69906,19.43176 -23.92772,42.93539 -15.84354,40.3507 -17.78189,45.8501 -20.4943,45.4839 -2.71232,-0.36605 -4.7647,3.16635 -10.6896,18.7245 5.22543,28.50863 69.34855,48.32621 82.36656,29.52029 5.15143,-10.30004 6.78064,-15.13212 4.4599,-16.77772 -2.3207,-1.64574 -0.39638,-7.22172 15.32649,-44.88217 13.93492,-33.35972 14.76553,-41.87451 12.81336,-53.62498 -1.83021,-11.01627 -11.14813,-21.37483 -22.86584,-26.37005 -0.78116,-0.33308 -1.5707,-0.60079 -2.37153,-0.8849 -4.38005,-1.55348 -8.59289,-2.19913 -12.63639,-2.08836 z"
               style="display:inline;fill:#ffff48;fill-opacity:1;stroke:none"
               id="path4060" />
          </g>
        </g>
      </g>
    </g>
  </g>
</svg>
